# xmcd
#
# Track frame offsets:
#	150
#	17925
#	34469
#	50437
#	64966
#	80014
#	95278
#	108020
#	129002
#	146600
#	161337
#	179842
#	194397
#
# Disc length: 2769 seconds
#
# Revision: 1
# Processed by: cddbd v1.5.2PL0 Copyright (c) Steve Scherf et al.
# Submitted via: audiograbber 1.83.01
#
DISCID=b10acf0d
DTITLE=Eric Horner - Prayer Warrior
DYEAR=1900
DGENRE=Country
TTITLE0=Prayer Warrior
TTITLE1=When Jesus mentios my name
TTITLE2=Plantimng seeds
TTITLE3=Till you start walkin´
TTITLE4=Send down some rain
TTITLE5=When you Cross the bloodline
TTITLE6=What I believe
TTITLE7=No place like home
TTITLE8=One Nation under God
TTITLE9=Step on out of the boat
TTITLE10=He's so real
TTITLE11=I'll be glory bound
TTITLE12=We will stand
EXTD=
EXTT0=
EXTT1=
EXTT2=
EXTT3=
EXTT4=
EXTT5=
EXTT6=
EXTT7=
EXTT8=
EXTT9=
EXTT10=
EXTT11=
EXTT12=
PLAYORDER=
